<?xml version="1.0" encoding="UTF-8"?>
<svg id="Layer_2" data-name="Layer 2" xmlns="http://www.w3.org/2000/svg" viewBox="0 0 223.34 238.37">
  <defs>
    <style>
      .cls-1, .cls-2 {
        fill: none;
      }

      .cls-1, .cls-2, .cls-3, .cls-4, .cls-5, .cls-6, .cls-7, .cls-8, .cls-9, .cls-10, .cls-11 {
        stroke: #2f4858;
        stroke-linecap: round;
        stroke-width: 3px;
      }

      .cls-1, .cls-3, .cls-5, .cls-6, .cls-7 {
        stroke-miterlimit: 10;
      }

      .cls-2, .cls-4, .cls-8, .cls-9, .cls-10, .cls-11 {
        stroke-linejoin: round;
      }

      .cls-3 {
        fill: #85bf7c;
      }

      .cls-4 {
        fill: #9b8579;
      }

      .cls-5 {
        fill: #629959;
      }

      .cls-6 {
        fill: #d3dbe5;
      }

      .cls-7 {
        fill: #b0df23;
      }

      .cls-8 {
        fill: #de6767;
      }

      .cls-9 {
        fill: #b2c0d4;
      }

      .cls-10 {
        fill: #fccf81;
      }

      .cls-11 {
        fill: #ebb86e;
      }
    </style>
  </defs>
  <g id="Layer_1-2" data-name="Layer 1">
    <g>
      <g>
        <path class="cls-8" d="M144.47,89.18c0,9.47-7.68,17.15-17.13,17.15-2.96,0-5.74-.75-8.17-2.06,.17-10.15,.34-20.3,.53-30.43,2.3-1.14,4.89-1.79,7.63-1.79,9.45,0,17.13,7.68,17.13,17.13Z"/>
        <path class="cls-10" d="M177.08,198.74c-14.08,12.89-32.85,20.74-53.45,20.74-2.18,0-4.36-.1-6.49-.27l1.38-79.01h.02l27.86,27.86c-5.69,2.81-9.62,8.65-9.62,15.41,0,9.47,7.66,17.13,17.13,17.13,6.76,0,12.6-3.93,15.41-9.62l7.75,7.75Z"/>
        <path class="cls-11" d="M221.83,140.2h-18.9c0-22.1-9.04-42.09-23.65-56.48-14.32-14.1-33.97-22.8-55.65-22.8-1.24,0-2.47,.02-3.71,.07,.12-5.82,.22-11.65,.31-17.47,57.01,.17,100.87,46.37,101.59,96.67Z"/>
        <path class="cls-11" d="M221.83,140.2c.05,3.37-.1,6.78-.44,10.18-2.4,23.48-14.25,44.99-32.01,60.67l-12.31-12.31c15.89-14.49,25.85-35.35,25.85-58.54h18.9Z"/>
        <path class="cls-11" d="M189.39,211.05c-18.92,16.74-44.58,26.87-72.57,25.73,.1-5.86,.22-11.7,.31-17.57,2.13,.17,4.31,.27,6.49,.27,20.59,0,39.37-7.85,53.45-20.74l12.31,12.31Z"/>
        <line class="cls-2" x1="191.45" y1="72.43" x2="179.28" y2="83.72"/>
        <line class="cls-2" x1="189.41" y1="211.07" x2="189.39" y2="211.05"/>
        <path class="cls-10" d="M179.28,83.72l-60.74,56.48h-.02c.22-11.99,.44-23.96,.65-35.93,2.42,1.31,5.21,2.06,8.17,2.06,9.45,0,17.13-7.68,17.13-17.15s-7.68-17.13-17.13-17.13c-2.74,0-5.33,.65-7.63,1.79,.07-4.29,.15-8.58,.22-12.84,1.24-.05,2.47-.07,3.71-.07,21.69,0,41.33,8.7,55.65,22.8Z"/>
        <path class="cls-10" d="M187.47,140.2c.46-1.53,.7-3.13,.7-4.8,0-9.45-7.68-17.13-17.13-17.13s-17.13,7.68-17.13,17.13c0,1.67,.24,3.27,.7,4.8h-36.08l60.74-56.48c14.61,14.39,23.65,34.38,23.65,56.48h-15.46Z"/>
        <path class="cls-10" d="M202.93,140.2c0,23.19-9.96,44.05-25.85,58.54l-7.75-7.75c1.09-2.25,1.72-4.8,1.72-7.51,0-9.45-7.68-17.13-17.13-17.13-2.71,0-5.26,.63-7.51,1.72l-27.86-27.86h36.08c2.04,7.12,8.63,12.33,16.43,12.33s14.37-5.21,16.43-12.33h15.46Z"/>
        <path class="cls-8" d="M171.05,183.48c0,2.71-.63,5.26-1.72,7.51l-22.92-22.92c2.25-1.09,4.8-1.72,7.51-1.72,9.45,0,17.13,7.68,17.13,17.13Z"/>
        <path class="cls-8" d="M169.33,190.99c-2.81,5.69-8.65,9.62-15.41,9.62-9.47,0-17.13-7.66-17.13-17.13,0-6.76,3.93-12.6,9.62-15.41l22.92,22.92Z"/>
        <path class="cls-8" d="M188.18,135.41c0,1.67-.24,3.27-.7,4.8h-32.85c-.46-1.53-.7-3.13-.7-4.8,0-9.45,7.66-17.13,17.13-17.13s17.13,7.68,17.13,17.13Z"/>
        <path class="cls-8" d="M187.47,140.2c-2.06,7.12-8.63,12.33-16.43,12.33s-14.39-5.21-16.43-12.33h32.85Z"/>
      </g>
      <polyline class="cls-1" points="103.41 85.3 103.41 73.35 103.41 70.93 103.41 58.16"/>
      <g>
        <path class="cls-5" d="M49.09,31.99c4.48-2.81,9.79-4.46,15.46-4.46,15.97,0,28.88,12.91,28.88,28.86l-28.93,35.98-28.74-38.38c.46-5.52,2.47-10.59,5.6-14.8"/>
        <path class="cls-3" d="M44.81,55.47c1.61-8.94,10.63-15.31,19.74-15.24,9.62,.08,18.25,7.33,20.21,17.47-.43,11.51-9.77,20.38-20.21,20.35-11.87-.04-21.73-11.58-19.74-22.59Z"/>
        <path class="cls-7" d="M53.37,62.47c.89-1.17,2.15-6.09,6.54-7.28,2.65-.72,3.82-.79,4.63-.79,.22,0,2.14,.01,4.1,.61,4.71,1.44,7.48,5.61,8.14,6.65-3.91,4.45-8.33,11.94-12.24,16.39-3.89-4.99-7.28-10.6-11.17-15.59Z"/>
        <path class="cls-4" d="M26.18,58L3.3,21.52c-1-1.59-.52-3.69,1.07-4.68l2.65-1.67c1.52-.96,3.53-.5,4.49,1.02l24.42,38.91,.83,1.35"/>
        <path class="cls-9" d="M103.41,168.23v18.41H58.54c-3.37,0-6.11-2.71-6.11-6.08v-14.42c6.28,1.38,13.18,2.08,20.74,2.08,3.8,0,26.56,.41,30.24,0Z"/>
        <path class="cls-3" d="M6.81,85.3c0-15.94,12.91-28.88,28.86-28.88h.1c.34,0,.65,0,.99,.05,2.81,.07,5.5,.56,8.04,1.43,3.13,1.04,6.03,2.62,8.58,4.58,6.35,4.94,10.59,12.5,11.12,21.06,.02,.36,.02,.73,.05,1.09v.68"/>
        <path class="cls-3" d="M64.65,82.87c.03-.23,.03-.47,.08-.68,.03-.36,.05-.73,.13-1.09,1.15-8,5.6-14.95,11.93-19.43,2.42-1.72,5.1-3.05,7.97-3.96,2.73-.86,5.65-1.33,8.67-1.33,3.52,0,6.88,.63,9.97,1.77v27.02s-38.86-.56-38.86-.56h.18"/>
        <path class="cls-7" d="M55.77,85.3H15.58c1.74-9.52,10.08-16.72,20.09-16.72,.58,0,1.16,.02,1.72,.07,3.08,.27,5.94,1.16,8.46,2.67h.02c2.42,1.41,4.51,3.25,6.18,5.45,.02,.02,.02,.05,.05,.1,.58,.78,1.09,1.55,1.55,2.4,0,.05,.02,.07,.05,.1,.27,.46,.48,.94,.7,1.45,.63,1.41,1.09,2.91,1.38,4.48Z"/>
        <path class="cls-7" d="M103.4,70.82c-2.94-1.69-6.35-2.63-9.97-2.63-.91,0-1.8,.05-2.66,.18-3.52,.44-6.72,1.8-9.43,3.8h-.03c-1.82,1.33-3.39,2.97-4.66,4.82-1.22,1.72-2.16,6.22-2.79,8.3l29.54-.12v-14.36Z"/>
        <path class="cls-1" d="M64.49,83.52h.36"/>
        <path class="cls-4" d="M49.09,31.97v.02c-2.98,1.91-5.62,4.36-7.73,7.2L29.14,6.71c-.53-1.41,.18-2.99,1.59-3.52l4.02-1.52c1.41-.53,2.99,.18,3.52,1.59l10.81,28.7Z"/>
        <path class="cls-6" d="M103.41,85.3v82.94c-3.68,.41-26.43,0-30.24,0-7.56,0-14.46-.7-20.74-2.08C17.08,158.49,1.5,130.15,1.5,91.21c0-.97,.02-1.94,.05-2.9,.07-1.68,1.46-3.01,3.14-3.01H103.41Z"/>
      </g>
    </g>
  </g>
</svg>