<?xml version="1.0" encoding="UTF-8"?>
<svg id="Layer_2" data-name="Layer 2" xmlns="http://www.w3.org/2000/svg" viewBox="0 0 80.05 97.7">
  <defs>
    <style>
      .cls-1 {
        fill: none;
        stroke: #2f4858;
        stroke-linecap: round;
        stroke-miterlimit: 10;
        stroke-width: 3px;
      }
    </style>
  </defs>
  <g id="Layer_1-2" data-name="Layer 1">
    <g>
      <path class="cls-1" d="M49.64,88.32H25.89c-13.46,0-24.37-10.47-24.37-23.39h0s-.05-15.02,0-15.02c0,0,72.5-.04,72.5,0v15.02c0,12.92-10.91,23.39-24.37,23.39Z"/>
      <path class="cls-1" d="M55.71,88.33v2.09c0,3.21-.39,5.78-.87,5.78H20.7c-.49,0-.89-2.66-.89-5.94v-1.93"/>
      <path class="cls-1" d="M40.29,49.9c-.14-3.74-1.45-7.18-3.56-9.97-3.25-4.32-8.42-7.12-14.25-7.12-.79,0-1.56,.05-2.33,.16-8.52,1.11-15.14,8.22-15.49,16.95"/>
      <path class="cls-1" d="M36.73,39.93c3.26-4.32,8.43-7.12,14.26-7.12,1.53,0,3.01,.19,4.43,.55,7.48,1.91,13.07,8.55,13.39,16.55"/>
      <polyline class="cls-1" points="26.71 49.91 26.72 49.91 26.74 49.91 26.75 49.91"/>
      <path class="cls-1" d="M38.81,18.07c8.52,.49,15.43,6.96,16.61,15.29"/>
      <path class="cls-1" d="M20.16,32.96c.9-5.41,4.22-10.01,8.83-12.62"/>
      <path class="cls-1" d="M61.75,36.42l10.92-18.54c.88-1.49,2.81-1.99,4.3-1.11h.04c1.49,.9,1.99,2.83,1.11,4.32l-13.1,18.54h0"/>
      <g>
        <circle class="cls-1" cx="33.56" cy="17.49" r="5.1"/>
        <path class="cls-1" d="M28.37,1.5c1.05,1.1,2.47,2.85,3.39,5.16,.98,2.44,1,4.51,.87,5.81"/>
      </g>
    </g>
  </g>
</svg>