<?xml version="1.0" encoding="UTF-8"?>
<svg id="Layer_2" data-name="Layer 2" xmlns="http://www.w3.org/2000/svg" viewBox="0 0 75 75">
  <defs>
    <style>
      .cls-1 {
        fill: none;
        stroke: #2f4858;
        stroke-linecap: round;
        stroke-miterlimit: 10;
        stroke-width: 3px;
      }
    </style>
  </defs>
  <g id="Layer_1-2" data-name="Layer 1">
    <g>
      <g>
        <path class="cls-1" d="M40.63,25.75c.04,.06,.08,.1,.11,.15,.09,.12,.21,.2,.34,.24,.07,.02,.15,.03,.22,.03"/>
        <path class="cls-1" d="M47.09,22.39s0,0,0,0c.96-1.1,1.8-2.47,2.32-4.19,1.64-5.39-1.19-9.74-2.16-11.02-.17-.23-.47-.32-.75-.23-1.52,.52-6.29,2.56-7.93,7.94-.56,1.83-.6,3.54-.37,5.05h0"/>
        <path class="cls-1" d="M39.01,32.74s.03,.02,.06,.03c1.55,.85,6.11,2.83,11.06,.54,5.11-2.36,6.47-7.37,6.78-8.95,.06-.28-.08-.57-.32-.71-1.24-.7-5.07-2.5-9.48-1.27-.57,.16-1.15,.37-1.73,.64-1.76,.81-3.08,1.94-4.06,3.14-.13,.16-.26,.33-.38,.5-.08,.1-.15,.2-.21,.3"/>
        <path class="cls-1" d="M36.9,39.46c.07-.1,.14-.2,.21-.3,1.01-1.37,2.44-2.71,4.44-3.63,5.11-2.37,9.81-.16,11.21,.63,.25,.14,.38,.42,.32,.71-.3,1.58-1.66,6.58-6.78,8.95-4.94,2.29-9.5,.3-11.06-.55-.02,0-.04-.01-.05-.02"/>
        <path class="cls-1" d="M33.17,51.69c.06-.09,.14-.19,.21-.28,1-1.31,2.39-2.57,4.31-3.46,5.11-2.37,9.81-.16,11.21,.63,.25,.14,.38,.42,.33,.71-.31,1.57-1.67,6.58-6.78,8.95-4.87,2.25-9.37,.35-10.99-.51-.01,0-.03-.01-.04-.02h0"/>
        <path class="cls-1" d="M39.07,32.74s-.04,0-.06,0h0s0,0,0,0c-1.61-.13-6.73-.92-9.64-5.73-2.92-4.81-1.26-9.73-.64-11.21,.11-.27,.38-.43,.67-.41,1.46,.12,5.85,.78,8.83,4.55,.29,.36,.56,.76,.82,1.18,.95,1.57,1.42,3.15,1.59,4.62,.05,.42,.07,.82,.08,1.21,0,.14,0,.27,0,.41"/>
        <path class="cls-1" d="M35.26,45.24s-.04,0-.06,0c0,0-.01,0-.02,0-1.61-.13-6.72-.93-9.64-5.73-2.93-4.81-1.26-9.73-.64-11.21,.11-.27,.38-.43,.67-.4,1.6,.13,6.73,.91,9.65,5.73,1.22,2.01,1.64,4.04,1.67,5.83h0c0,.14,0,.28,0,.41"/>
        <path class="cls-1" d="M33.18,52.07c0-.13,0-.25,0-.38-.06-1.73-.5-3.67-1.67-5.6-2.92-4.81-8.05-5.6-9.65-5.73-.29-.02-.56,.14-.67,.4-.62,1.48-2.28,6.4,.64,11.21,2.89,4.75,7.92,5.58,9.59,5.72h.05"/>
        <polyline class="cls-1" points="28.29 68.12 31.46 57.72 31.46 57.7 33.18 52.07 33.38 51.41 35.26 45.26 35.26 45.24 36.9 39.87 37.11 39.16 39.06 32.77 39.07 32.74 40.7 27.37 40.92 26.66 41.08 26.14"/>
      </g>
      <g>
        <polyline class="cls-1" points="10.55 13.65 26.22 27.51 46.69 45.63 51.81 50.15 64.46 61.35"/>
        <circle class="cls-1" cx="37.5" cy="37.5" r="36"/>
      </g>
    </g>
  </g>
</svg>