<?xml version="1.0" encoding="UTF-8"?>
<svg id="Layer_2" data-name="Layer 2" xmlns="http://www.w3.org/2000/svg" viewBox="0 0 75 75">
  <defs>
    <style>
      .cls-1 {
        fill: none;
        stroke: #2f4858;
        stroke-linecap: round;
        stroke-miterlimit: 10;
        stroke-width: 3px;
      }
    </style>
  </defs>
  <g id="Layer_1-2" data-name="Layer 1">
    <g>
      <g>
        <rect class="cls-1" x="22.27" y="25.31" width="23.02" height="39.44" rx=".39" ry=".39"/>
        <path class="cls-1" d="M45.3,64.75h6.6c.46,0,.83-.39,.83-.86V25.31l-3.72-8.56-3.72,8.56"/>
        <path class="cls-1" d="M22.27,25.31l4.73-8.56h22.01v-6.3c0-.1-.08-.19-.18-.19H27.58"/>
        <line class="cls-1" x1="27.58" y1="10.25" x2="27.58" y2="16.75"/>
        <path class="cls-1" d="M52.73,47.23c-1.78,3.08-4.57,5.02-7.43,5.57-1.52,.31-3.05,.22-4.47-.31-3.89-1.44-5.33-5.55-5.54-6.18-.5-1.64-1-3.3-1.49-4.95-1.34-4.82-4.12-8.08-8.25-8.33-1.12-.07-2.23,.11-3.26,.49"/>
      </g>
      <g>
        <polyline class="cls-1" points="10.55 13.65 26.22 27.51 46.69 45.63 51.81 50.15 64.46 61.35"/>
        <circle class="cls-1" cx="37.5" cy="37.5" r="36"/>
      </g>
    </g>
  </g>
</svg>