<?xml version="1.0" encoding="UTF-8"?>
<svg id="Layer_2" data-name="Layer 2" xmlns="http://www.w3.org/2000/svg" viewBox="0 0 111.45 90.15">
  <defs>
    <style>
      .cls-1 {
        fill: none;
        stroke: #2f4858;
        stroke-linecap: round;
        stroke-miterlimit: 10;
        stroke-width: 3px;
      }
    </style>
  </defs>
  <g id="Layer_1-2" data-name="Layer 1">
    <g>
      <path class="cls-1" d="M2.16,46.16L87.74,25.31c1.3-.32,2.67,.1,3.57,1.09l18.04,19.77s0,.08-.04,.08H2.17c-.06,0-.07-.09-.01-.1Z"/>
      <path class="cls-1" d="M2.17,46.26H109.04c.21,0,.38,.17,.38,.38v9.28c0,1.52-1.24,2.76-2.76,2.76H4.54c-1.54,0-2.79-1.25-2.79-2.79v-9.22c0-.23,.19-.42,.42-.42Z"/>
      <path class="cls-1" d="M48.42,76.23h57.92c1.71,0,3.08,1.38,3.08,3.08v6.27c0,1.7-1.38,3.08-3.08,3.08H4.83c-1.7,0-3.08-1.38-3.08-3.08v-6.27c0-1.7,1.38-3.08,3.08-3.08h30.68"/>
      <polyline class="cls-1" points="18.09 58.69 24.63 65.27 25.42 66.07"/>
      <path class="cls-1" d="M31.34,72.03l4.17,4.2,4.8,4.84c.76,.77,1.98,.79,2.78,.07l5.34-4.91,7.86-7.21,11.24-10.33"/>
      <path class="cls-1" d="M106.67,58.69c.19,1.39,.73,6.5-2.43,9.46-1.63,1.53-3.94,2.22-9.78,1.84-13.25-.86-14.39-5.23-22.02-4.29-6.21,.77-7.89,3.97-14.87,3.47-.4-.03-.83-.08-1.28-.16"/>
      <path class="cls-1" d="M32.89,64.05c-1,.31-2.41,.83-5.91,1.65-.53,.13-1.06,.25-1.57,.37-.4,.09-.79,.18-1.17,.27-7.3,1.68-11.31,2.3-14.39,.39-.78-.49-2.01-1.44-3.08-3.41-.64-1.16-1.21-2.67-1.6-4.63"/>
      <path class="cls-1" d="M6.78,63.32c-3.4,1.54-5.44,4.59-5.27,7.48,.18,3.06,2.78,5.03,3.32,5.43"/>
      <path class="cls-1" d="M106.37,64.48c2.1,1.25,3.47,3.33,3.57,5.51,.12,2.41-1.32,4.8-3.59,6.24"/>
      <path class="cls-1" d="M31.34,72.03c1.7-.81,2.87-2.55,2.87-4.57,0-1.31-.5-2.5-1.31-3.41-.9-1.03-2.24-1.68-3.73-1.68-2.01,0-3.74,1.18-4.54,2.89-.17,.34-.3,.69-.38,1.07"/>
      <path class="cls-1" d="M53.94,58.69c0,.1,.02,.21,.02,.31,0,1.68-1.37,3.04-3.04,3.04s-3.05-1.36-3.05-3.04c0-.1,0-.21,.02-.31"/>
      <path class="cls-1" d="M66.31,37.74V1.88c0-.27-.3-.45-.58-.35l-30.04,10.16c-.3,.1-.26,.48,.05,.54l30.57,5.53"/>
    </g>
  </g>
</svg>