<?xml version="1.0" encoding="UTF-8"?>
<svg id="Layer_2" data-name="Layer 2" xmlns="http://www.w3.org/2000/svg" viewBox="0 0 75 75">
  <defs>
    <style>
      .cls-1 {
        stroke-linecap: round;
      }

      .cls-1, .cls-2 {
        fill: none;
      }

      .cls-1, .cls-2, .cls-3 {
        stroke: #2f4858;
        stroke-miterlimit: 10;
        stroke-width: 3px;
      }

      .cls-3 {
        fill: #231f20;
      }
    </style>
  </defs>
  <g id="Layer_1-2" data-name="Layer 1">
    <g>
      <g>
        <path class="cls-2" d="M40.75,53.65c5.31-.69,10.19-2.66,14.15-5.93,7.17-5.92,13.57-17.94,9.01-25.01-4.24-6.57-16.17-6.07-23.94-3.32-.34,.12-.67,.24-.99,.37-3.94,1.57-7.13,3.95-9.69,6.69h0c-4.85,5.18-7.5,11.68-8.9,16.54-.67,2.31-1.06,4.24-1.28,5.49-.14,.85,.32,1.68,1.11,2.02,1.67,.71,3.36,1.31,5.04,1.79,1.92,.56,3.85,.97,5.75,1.24"/>
        <path class="cls-2" d="M25.25,52.3l-4.47,7.85c-.53,.93-1.88,.94-2.42,.01l-8.78-15.01c-.54-.93,.12-2.1,1.2-2.1l9.6-.05"/>
        <circle class="cls-3" cx="51.83" cy="25.01" r="2.06"/>
        <path class="cls-2" d="M46.84,40.93c0-.47-.5-.76-.9-.53-1.48,.87-3.33,1.8-5.54,2.56-2.7,.94-5.14,1.36-7.07,1.55-.29,.03-.54,.2-.67,.45-.66,1.33-1.53,3.52-1.69,6.34-.13,2.2,.22,4.05,.6,5.38,.17,.59,.77,.94,1.37,.8,2.54-.62,8.5-2.65,11.8-8.59,1.68-3.04,2.06-6,2.1-7.96Z"/>
        <path class="cls-2" d="M59.51,42.92c-3.7-2.19-8.69-5.98-12.61-12.2-2.74-4.35-4.13-8.59-4.85-11.97"/>
        <path class="cls-2" d="M22.61,36.82l-2.83-2.34c-.38-.32-.44-.89-.12-1.27l3.28-5.06c1.47-2.26,3.21-4.34,5.19-6.17l3.48-3.21c.32-.38,.89-.44,1.27-.12l3.09,2.55"/>
      </g>
      <g>
        <polyline class="cls-1" points="10.55 13.65 26.22 27.51 46.69 45.63 51.81 50.15 64.46 61.35"/>
        <circle class="cls-1" cx="37.5" cy="37.5" r="36"/>
      </g>
    </g>
  </g>
</svg>