<?xml version="1.0" encoding="UTF-8"?>
<svg id="Layer_2" data-name="Layer 2" xmlns="http://www.w3.org/2000/svg" viewBox="0 0 116.56 122.18">
  <defs>
    <style>
      .cls-1 {
        stroke-linecap: round;
      }

      .cls-1, .cls-2 {
        fill: none;
        stroke: #2f4858;
        stroke-miterlimit: 10;
        stroke-width: 3px;
      }
    </style>
  </defs>
  <g id="Layer_1-2" data-name="Layer 1">
    <g>
      <path class="cls-2" d="M45.91,62.17c-.71-2.46-1.08-5.05-1.08-7.73v-18.34c0-2.7,2.19-4.89,4.89-4.89h48.36c2.7,0,4.88,2.19,4.88,4.89v18.34c0,7.3-2.75,13.95-7.28,18.98-5.19,5.76-12.71,9.38-21.08,9.38h-.99"/>
      <path class="cls-2" d="M103.56,40.06c.35-.04,.71-.05,1.06-.05,7.18,0,11.55,6.71,10.19,14.71-1.49,8.8-8.25,14.27-15.14,14.68"/>
      <path class="cls-2" d="M95.68,73.42c10.14,1.93,16.79,5.18,16.79,8.86,0,5.74-16.13,10.43-36.44,10.74-.02,0-.03,0-.05,0"/>
      <path class="cls-1" d="M57.71,5.96c3.96,1.48,4.8,2.8,4.84,3.72,.06,1.48-1.95,1.96-4.09,5.21-1.05,1.6-2.29,3.48-1.86,5.58,.42,2.06,2.23,3.28,2.98,3.72"/>
      <path class="cls-1" d="M71.15,1.5c3.96,1.48,4.8,2.8,4.84,3.72,.06,1.48-1.95,1.96-4.09,5.21-1.05,1.6-2.29,3.48-1.86,5.58,.42,2.06,2.23,3.28,2.98,3.72"/>
      <path class="cls-1" d="M84.15,6.5c3.96,1.48,4.8,2.8,4.84,3.72,.06,1.48-1.95,1.96-4.09,5.21-1.05,1.6-2.29,3.48-1.86,5.58,.42,2.06,2.23,3.28,2.98,3.72"/>
      <g>
        <path class="cls-2" d="M39.56,70.77c3.4-11.79,10.28-9.85,16.94-5.51,6.66,4.34,13.64,6.67,3.13,17.59-7.73,8.03-14.38,15.11-21.04,10.78-6.66-4.34-2.12-12.14,.97-22.85Z"/>
        <path class="cls-2" d="M35.16,87.12c-1.48,.91-3.46,1.4-6.2,1.38-4.19-.02-7.01-1.91-8.15-6.2-.79-3.01-.75-7.21,.23-12.77,.68-3.9,.76-6.59,1.38-8.36,.92-2.65,3.07-3.2,10.28-2.61,5.14,.42,9.97,.35,10.58,5.16"/>
        <path class="cls-2" d="M22.42,61.18c-3.6-.38-7.51,.61-11.04,3.6-7.64,6.49-12.5,12.94-8.38,18.77,3.84,5.43,9.13,1.51,17.81-1.24"/>
        <path class="cls-2" d="M64.72,75.5c4.08-1.03,6.18,3.05,8.82,7.18,3.88,6.11,4.39,8.27,2.47,10.31-1.28,1.38-3.61,2.7-6.74,5.12-4.47,3.46-8.17,5.45-11.2,6.15-4.31,.99-7.31-.63-9.28-4.32-1.29-2.44-1.78-4.42-1.66-6.15"/>
        <path class="cls-2" d="M58.07,104.26c1.61,8.96,.61,15.47,7.2,16.34,7.07,.94,10.52-6.38,12.7-16.16,1-4.52,.05-8.43-1.96-11.44"/>
      </g>
    </g>
  </g>
</svg>