<?xml version="1.0" encoding="UTF-8"?>
<svg id="Layer_2" data-name="Layer 2" xmlns="http://www.w3.org/2000/svg" viewBox="0 0 131.37 103.6">
  <defs>
    <style>
      .cls-1 {
        fill: none;
        stroke: #2f4858;
        stroke-linecap: round;
        stroke-miterlimit: 10;
        stroke-width: 3px;
      }
    </style>
  </defs>
  <g id="Layer_1-2" data-name="Layer 1">
    <g>
      <g>
        <g>
          <path class="cls-1" d="M1.57,86H129.8s.07,.03,.07,.07v.49c0,5.89-4.78,10.67-10.67,10.67H12.17c-5.89,0-10.67-4.78-10.67-10.67v-.49s.03-.07,.07-.07Z"/>
          <path class="cls-1" d="M116.05,97.24v1.29c0,1.98-1.1,3.57-2.45,3.57H17.84c-1.38,0-2.51-1.64-2.51-3.67v-1.19"/>
        </g>
        <path class="cls-1" d="M120.8,86c-.01-1.11-.03-2.19-.03-3.21-.03-8.54-5.5-15.99-12.93-16.95-2.55-.33-5,.11-7.18,1.12-2.84,1.33-5.24,3.65-6.85,6.6-2.31-1.77-5.08-2.79-8.07-2.79-7.63,0-13.89,6.7-14.54,15.24"/>
        <g>
          <path class="cls-1" d="M77.66,72.4c.03-1.93-.14-3.76-.52-5.48h0c-1.21-5.6-4.58-10.06-10.28-13.42-2.84-1.69-6.27-3.1-10.29-4.24-.11-.04-.23-.07-.33-.09-.14-.04-.28-.07-.41-.1-1.32-.32-2.59-.85-3.77-1.49,0,0-11.19-13.53-19.19-11.68h-.01c-.38,.09-.75,.22-1.11,.37-2.58,1.14-4.49,3-5.81,5.35-3.04,5.43-2.94,13.53-.71,21.79,.59,2.24,1.17,4.2,1.73,5.96,2.16,6.89,4,10.52,6.14,14.28,.42,.82,.9,1.6,1.41,2.35"/>
          <g>
            <line class="cls-1" x1="25.94" y1="41.62" x2="19.52" y2="33.42"/>
            <line class="cls-1" x1="32.87" y1="35.9" x2="26.59" y2="27.88"/>
            <path class="cls-1" d="M19.52,33.42s-.04,.04-.06,.06c-1.54,1.34-3.73,1.76-5.57,.87-4.14-2-4.33-7.02-1.27-9.41,1.57-1.23,3.61-1.46,5.34-.79"/>
            <path class="cls-1" d="M17.96,24.15c-.29-2.19,.78-4.5,3.04-5.62,1.89-.94,4.24-.66,5.86,.7,2.77,2.33,2.58,6.44-.11,8.54-.05,.04-.11,.08-.16,.11"/>
          </g>
        </g>
        <path class="cls-1" d="M8.99,85.5c0-1.21,.04-2.38,.04-3.48,0-8.99,6.98-16.28,15.58-16.28,.37,0,.73,.02,1.09,.05"/>
        <path class="cls-1" d="M41.29,7.51c3.08,1.16,3.74,2.18,3.77,2.9,.05,1.15-1.52,1.53-3.19,4.06-.82,1.25-1.79,2.71-1.45,4.35,.33,1.61,1.74,2.56,2.32,2.9"/>
        <path class="cls-1" d="M57.33,1.5c3.08,1.16,3.74,2.18,3.77,2.9,.05,1.15-1.52,1.53-3.19,4.06-.82,1.25-1.79,2.71-1.45,4.35,.33,1.61,1.74,2.56,2.32,2.9"/>
        <path class="cls-1" d="M72.89,8.73c3.08,1.16,3.74,2.18,3.77,2.9,.05,1.15-1.52,1.53-3.19,4.06-.82,1.25-1.79,2.71-1.45,4.35,.33,1.61,1.74,2.56,2.32,2.9"/>
        <path class="cls-1" d="M66.86,53.5c-.13-1.02-.12-2.07,.16-3.27,.68-2.85,2.58-4.9,4.22-6.26,.29-.24,.45-.6,.4-.97-.21-1.62-.36-5.12,1.75-8.56,.46-.75,2.25-3.67,5.27-4.71,2.35-.81,5.17-.39,7.87,1.1h.01"/>
        <path class="cls-1" d="M77.14,66.92c1.26-2.57,2.65-5.34,3.04-6.06,.03-.06,.04-.12,.01-.18-.59-1.73-1.31-4.65-.98-8.24,.49-5.16,4.31-8.92,5.71-10.57,.12-.14,.18-.34,.13-.52-.37-1.31-1.86-2.46-.52-6.89,.06-.19,.62-1.87,1.99-3.62h.01c1.61-2.03,4.32-4.15,8.65-4.15,5.77,0,9.96,5.31,10.79,9.93,.3,1.68,.13,3.16-.1,4.24-.03,.14,.02,.27,.13,.35,1.13,.83,2.31,1.95,3.28,3.46,3.82,6.02,1.11,13.28,.39,14.99-.06,.15,.01,.29,.17,.33,1.3,.36,2.88,1.06,4.04,2.52,1.41,1.78,1.87,4.29,1.35,6.95"/>
        <polyline class="cls-1" points="95.19 71.41 95.19 64.66 95.19 53.5 95.19 33.42"/>
      </g>
      <line class="cls-1" x1="86.28" y1="56.6" x2="95.19" y2="64.65"/>
      <line class="cls-1" x1="102.96" y1="44.95" x2="95.19" y2="53.5"/>
    </g>
  </g>
</svg>