<?xml version="1.0" encoding="UTF-8"?>
<svg id="Layer_2" data-name="Layer 2" xmlns="http://www.w3.org/2000/svg" viewBox="0 0 75 75">
  <defs>
    <style>
      .cls-1 {
        stroke-linecap: round;
      }

      .cls-1, .cls-2 {
        fill: none;
        stroke: #2f4858;
        stroke-miterlimit: 10;
        stroke-width: 3px;
      }
    </style>
  </defs>
  <g id="Layer_1-2" data-name="Layer 1">
    <g>
      <g>
        <path class="cls-2" d="M41.72,12.72c-8.7-.04-13.16,5.36-14.4,12.7-.06,.35-.4,1.57-1.46,2.44-1.21,.99-1.52,.8-3.17,.98-9.18,.96-10.25,7.7-9.03,13.43,1.14,5.37,7.62,9.58,18.12,7.83,2.69-.52,10.39-1.82,14.84-4.41,4.63-2.69,14.28-8.98,11.96-20.02-1.63-7.75-9.9-12.91-16.85-12.94Z"/>
        <path class="cls-2" d="M13.36,40.57c.13,2.96,.55,7.49,.88,9.06,1.14,5.37,7.62,9.58,18.12,7.83,2.69-.52,10.39-1.82,14.84-4.41,3.07-1.78,8.92-4.72,11.32-11.9,.98-2.92,.67-7.74,.39-11.75-.07-1.01-.14-1.98-.19-2.84"/>
      </g>
      <ellipse class="cls-2" cx="43.53" cy="23.88" rx="4.87" ry="5.57" transform="translate(1.08 49.64) rotate(-60)"/>
      <g>
        <polyline class="cls-1" points="10.55 13.65 26.22 27.51 46.69 45.63 51.81 50.15 64.46 61.35"/>
        <circle class="cls-1" cx="37.5" cy="37.5" r="36"/>
      </g>
    </g>
  </g>
</svg>